# xmcd CD database file
#
# Track frame offsets:
#	150
#	11714
#	23175
#	34400
#	45619
#	58121
#	68229
#	79673
#	91429
#	102469
#	113394
#	126425
#	137999
#	149080
#	159328
#	170333
#
# Disc length: 2406 seconds
#
# Revision: 0
# Processed by: cddbd v1.5.2PL0 Copyright (c) Steve Scherf et al.
# Submitted via: CDex 1.82
#
DISCID=e2096410
DTITLE=Patsy Cline - Supreme Legends
DYEAR=2014
DGENRE=Country
TTITLE0=Let The Teardrops Fall
TTITLE1=I've Loved And Lost Again
TTITLE2=Just Out Of Reach
TTITLE3=Hungry For Love
TTITLE4=Fingerprints
TTITLE5=Three Cigarettes In An Ashtray
TTITLE6=Walking After Midnight
TTITLE7=Today Tomorrow And Forever
TTITLE8=Stop The World
TTITLE9=I Cried All The Way To The Altar
TTITLE10=If I Could See The World
TTITLE11=Never No More
TTITLE12=Hidin' Out
TTITLE13=Too Many Secrets
TTITLE14=I Can't Forget You
TTITLE15=Pick Me Up On Your Way Down
EXTD=YEAR: 2014
EXTT0=
EXTT1=
EXTT2=
EXTT3=
EXTT4=
EXTT5=
EXTT6=
EXTT7=
EXTT8=
EXTT9=
EXTT10=
EXTT11=
EXTT12=
EXTT13=
EXTT14=
EXTT15=
PLAYORDER=
